<?xml version="1.0" encoding="UTF-8" standalone="no"?>
<svg
   xmlns:dc="http://purl.org/dc/elements/1.1/"
   xmlns:cc="http://creativecommons.org/ns#"
   xmlns:rdf="http://www.w3.org/1999/02/22-rdf-syntax-ns#"
   xmlns:svg="http://www.w3.org/2000/svg"
   xmlns="http://www.w3.org/2000/svg"
   xmlns:sodipodi="http://sodipodi.sourceforge.net/DTD/sodipodi-0.dtd"
   xmlns:inkscape="http://www.inkscape.org/namespaces/inkscape"
   sodipodi:docname="ntw-intro.svg"
   inkscape:version="1.0 (4035a4fb49, 2020-05-01)"
   id="svg890"
   version="1.1"
   viewBox="0 0 815.08905 98.89135"
   height="98.89135mm"
   width="815.08905mm">
  <defs
     id="defs884" />
  <sodipodi:namedview
     inkscape:window-maximized="1"
     inkscape:window-y="-9"
     inkscape:window-x="-9"
     inkscape:window-height="1001"
     inkscape:window-width="1920"
     showborder="false"
     showgrid="false"
     inkscape:document-rotation="0"
     inkscape:current-layer="layer1"
     inkscape:document-units="mm"
     inkscape:cy="107.98705"
     inkscape:cx="1477.5149"
     inkscape:zoom="0.24748737"
     inkscape:pageshadow="2"
     inkscape:pageopacity="0.0"
     borderopacity="1.0"
     bordercolor="#666666"
     pagecolor="#ffffff"
     id="base" />
  <metadata
     id="metadata887">
    <rdf:RDF>
      <cc:Work
         rdf:about="">
        <dc:format>image/svg+xml</dc:format>
        <dc:type
           rdf:resource="http://purl.org/dc/dcmitype/StillImage" />
        <dc:title></dc:title>
      </cc:Work>
    </rdf:RDF>
  </metadata>
  <g
     transform="translate(275.88412,-225.57548)"
     id="layer1"
     inkscape:groupmode="layer"
     inkscape:label="Layer 1">
    <g
       transform="translate(0,-54.522984)"
       id="g1843">
      <g
         id="g1779"
         transform="translate(0,44.901281)">
        <path
           d="m -242.3713,251.44029 h -14.12743 v 28.68183 h -5.25795 v -28.68183 h -14.12744 v -3.84463 h 33.51282 z"
           style="font-style:normal;font-variant:normal;font-weight:normal;font-stretch:normal;font-size:49.3261px;line-height:1.25;font-family:codicon;-inkscape-font-specification:'codicon, Normal ';font-variant-ligatures:normal;font-variant-caps:normal;font-variant-numeric:normal;font-variant-east-asian:normal;fill:#3952a6;fill-opacity:1;stroke:none;stroke-width:50.757"
           id="path1471" />
        <path
           d="m -208.80537,251.33108 q 2.41653,2.18444 3.69118,5.3519 1.30122,3.16745 1.30122,7.18683 0,4.0194 -1.32777,7.20869 -1.30121,3.16745 -3.66463,5.28637 -2.44309,2.2063 -5.78906,3.32036 -3.31942,1.11407 -7.59483,1.11407 -4.16918,0 -7.59482,-1.13591 -3.39908,-1.13591 -5.78906,-3.29852 -2.38997,-2.16261 -3.69119,-5.30822 -1.27465,-3.1456 -1.27465,-7.18684 0,-3.9757 1.27465,-7.1213 1.27466,-3.16746 3.71774,-5.41743 2.33687,-2.14076 5.78907,-3.27668 3.47874,-1.13591 7.56826,-1.13591 4.24885,0 7.62138,1.15775 3.39908,1.13592 5.76251,3.25484 z m -0.478,12.53873 q 0,-6.3349 -3.45219,-9.76449 -3.45219,-3.45143 -9.42714,-3.45143 -6.02806,0 -9.48025,3.45143 -3.42564,3.42959 -3.42564,9.76449 0,6.40044 3.5053,9.80818 3.50531,3.3859 9.40059,3.3859 5.89528,0 9.37403,-3.3859 3.5053,-3.40774 3.5053,-9.80818 z"
           style="font-style:normal;font-variant:normal;font-weight:normal;font-stretch:normal;font-size:49.3261px;line-height:1.25;font-family:codicon;-inkscape-font-specification:'codicon, Normal ';font-variant-ligatures:normal;font-variant-caps:normal;font-variant-numeric:normal;font-variant-east-asian:normal;fill:#3952a6;fill-opacity:1;stroke:none;stroke-width:50.757"
           id="path1473" />
        <path
           d="m -170.45949,280.12212 h -25.01511 v -32.52646 h 5.25795 v 28.68183 h 19.75716 z"
           style="font-style:normal;font-variant:normal;font-weight:normal;font-stretch:normal;font-size:49.3261px;line-height:1.25;font-family:codicon;-inkscape-font-specification:'codicon, Normal ';font-variant-ligatures:normal;font-variant-caps:normal;font-variant-numeric:normal;font-variant-east-asian:normal;fill:#3952a6;fill-opacity:1;stroke:none;stroke-width:50.757"
           id="path1475" />
        <path
           d="m -135.43302,267.05912 q 0,3.5388 -0.95599,6.18198 -0.92943,2.62134 -3.08041,4.3689 -2.04476,1.66019 -4.77996,2.42474 -2.7352,0.76456 -6.37327,0.76456 -3.71775,0 -6.4795,-0.80825 -2.76176,-0.80824 -4.64719,-2.38105 -2.15098,-1.79125 -3.10697,-4.32521 -0.92943,-2.53396 -0.92943,-6.22567 v -19.46346 h 5.25795 v 19.6819 q 0,2.64318 0.42488,4.17229 0.45144,1.52912 1.4871,2.77426 1.16844,1.41989 3.16009,2.14076 2.0182,0.72086 4.83307,0.72086 2.84141,0 4.83306,-0.69902 1.99165,-0.72086 3.18664,-2.1626 1.03566,-1.24514 1.46055,-2.83978 0.45143,-1.6165 0.45143,-3.99755 v -19.79112 h 5.25795 z"
           style="font-style:normal;font-variant:normal;font-weight:normal;font-stretch:normal;font-size:49.3261px;line-height:1.25;font-family:codicon;-inkscape-font-specification:'codicon, Normal ';font-variant-ligatures:normal;font-variant-caps:normal;font-variant-numeric:normal;font-variant-east-asian:normal;fill:#3952a6;fill-opacity:1;stroke:none;stroke-width:50.757"
           id="path1477" />
        <path
           d="m -46.25499,280.12212 h -5.603173 l -3.877076,-9.06547 h -17.101629 l -3.877076,9.06547 h -5.33762 l 14.392984,-32.52646 h 7.010606 z m -11.100124,-12.77903 -6.93094,-15.96833 -6.957494,15.96833 z"
           style="font-style:normal;font-variant:normal;font-weight:normal;font-stretch:normal;font-size:49.3261px;line-height:1.25;font-family:codicon;-inkscape-font-specification:'codicon, Normal ';font-variant-ligatures:normal;font-variant-caps:normal;font-variant-numeric:normal;font-variant-east-asian:normal;fill:#3952a6;fill-opacity:1;stroke:none;stroke-width:50.757"
           id="path1481" />
        <path
           d="m -10.086645,280.12212 h -6.506054 l -18.748058,-29.09687 v 29.09687 h -4.912734 v -32.52646 h 8.152484 l 17.101627,26.56291 v -26.56291 h 4.912735 z"
           style="font-style:normal;font-variant:normal;font-weight:normal;font-stretch:normal;font-size:49.3261px;line-height:1.25;font-family:codicon;-inkscape-font-specification:'codicon, Normal ';font-variant-ligatures:normal;font-variant-caps:normal;font-variant-numeric:normal;font-variant-east-asian:normal;fill:#3952a6;fill-opacity:1;stroke:none;stroke-width:50.757"
           id="path1483" />
        <path
           d="M 14.370811,280.12212 H -1.2437182 v -3.32036 h 5.1782879 v -25.88573 h -5.1782879 v -3.32037 H 14.370811 v 3.32037 H 9.1925227 v 25.88573 h 5.1782883 z"
           style="font-style:normal;font-variant:normal;font-weight:normal;font-stretch:normal;font-size:49.3261px;line-height:1.25;font-family:codicon;-inkscape-font-specification:'codicon, Normal ';font-variant-ligatures:normal;font-variant-caps:normal;font-variant-numeric:normal;font-variant-east-asian:normal;fill:#3952a6;fill-opacity:1;stroke:none;stroke-width:50.757"
           id="path1485" />
        <path
           d="M 114.71813,280.12212 H 99.103597 v -3.32036 h 5.178283 v -25.88573 h -5.178283 v -3.32037 h 15.614533 v 3.32037 h -5.17829 v 25.88573 h 5.17829 z"
           style="font-style:normal;font-variant:normal;font-weight:normal;font-stretch:normal;font-size:49.3261px;line-height:1.25;font-family:codicon;-inkscape-font-specification:'codicon, Normal ';font-variant-ligatures:normal;font-variant-caps:normal;font-variant-numeric:normal;font-variant-east-asian:normal;fill:#3952a6;fill-opacity:1;stroke:none;stroke-width:50.757"
           id="path1489" />
        <path
           d="m 148.73549,280.12212 h -25.01511 v -32.52646 h 5.25796 v 28.68183 h 19.75715 z"
           style="font-style:normal;font-variant:normal;font-weight:normal;font-stretch:normal;font-size:49.3261px;line-height:1.25;font-family:codicon;-inkscape-font-specification:'codicon, Normal ';font-variant-ligatures:normal;font-variant-caps:normal;font-variant-numeric:normal;font-variant-east-asian:normal;fill:#3952a6;fill-opacity:1;stroke:none;stroke-width:50.757"
           id="path1491" />
        <path
           d="m 179.00856,280.12212 h -25.01512 v -32.52646 h 5.25795 v 28.68183 h 19.75717 z"
           style="font-style:normal;font-variant:normal;font-weight:normal;font-stretch:normal;font-size:49.3261px;line-height:1.25;font-family:codicon;-inkscape-font-specification:'codicon, Normal ';font-variant-ligatures:normal;font-variant-caps:normal;font-variant-numeric:normal;font-variant-east-asian:normal;fill:#3952a6;fill-opacity:1;stroke:none;stroke-width:50.757"
           id="path1493" />
        <path
           d="m 198.20805,280.12212 h -15.61452 v -3.32036 h 5.17828 v -25.88573 h -5.17828 v -3.32037 h 15.61452 v 3.32037 h -5.17828 v 25.88573 h 5.17828 z"
           style="font-style:normal;font-variant:normal;font-weight:normal;font-stretch:normal;font-size:49.3261px;line-height:1.25;font-family:codicon;-inkscape-font-specification:'codicon, Normal ';font-variant-ligatures:normal;font-variant-caps:normal;font-variant-numeric:normal;font-variant-east-asian:normal;fill:#3952a6;fill-opacity:1;stroke:none;stroke-width:50.757"
           id="path1495" />
        <path
           d="m 238.38626,280.12212 h -5.60318 l -3.87708,-9.06547 h -17.10162 l -3.87707,9.06547 h -5.33763 l 14.39298,-32.52646 h 7.01062 z m -11.10012,-12.77903 -6.93095,-15.96833 -6.95749,15.96833 z"
           style="font-style:normal;font-variant:normal;font-weight:normal;font-stretch:normal;font-size:49.3261px;line-height:1.25;font-family:codicon;-inkscape-font-specification:'codicon, Normal ';font-variant-ligatures:normal;font-variant-caps:normal;font-variant-numeric:normal;font-variant-east-asian:normal;fill:#3952a6;fill-opacity:1;stroke:none;stroke-width:50.757"
           id="path1497" />
        <path
           d="m 279.60013,280.12212 h -5.25795 v -28.02649 l -10.99391,19.07025 h -3.13353 l -10.91423,-19.07025 v 28.02649 h -4.91273 v -32.52646 h 7.16993 l 10.54247,18.10909 10.19724,-18.10909 h 7.30271 z"
           style="font-style:normal;font-variant:normal;font-weight:normal;font-stretch:normal;font-size:49.3261px;line-height:1.25;font-family:codicon;-inkscape-font-specification:'codicon, Normal ';font-variant-ligatures:normal;font-variant-caps:normal;font-variant-numeric:normal;font-variant-east-asian:normal;fill:#3952a6;fill-opacity:1;stroke:none;stroke-width:50.757"
           id="path1499" />
        <path
           d="m 319.00823,270.83821 q 0,1.90047 -1.08877,3.75725 -1.06221,1.85679 -3.00075,3.14561 -2.12443,1.39805 -4.96585,2.18446 -2.81486,0.7864 -6.79816,0.7864 -4.27541,0 -7.70104,-0.65534 -3.39908,-0.65533 -6.93094,-1.94416 v -5.41744 h 0.37177 q 3.00076,2.05339 6.93094,3.16745 3.93019,1.11407 7.38238,1.11407 4.88618,0 7.59482,-1.50727 2.7352,-1.50726 2.7352,-4.01939 0,-2.1626 -1.30121,-3.18929 -1.27466,-1.02669 -3.90363,-1.59464 -1.99165,-0.4369 -4.32852,-0.72088 -2.31031,-0.28398 -4.91274,-0.72087 -5.25795,-0.91747 -7.80726,-3.12376 -2.52275,-2.22814 -2.52275,-5.78879 0,-4.08493 4.19574,-6.68442 4.19574,-2.62133 10.64869,-2.62133 4.16917,0 7.64793,0.65533 3.47875,0.65534 6.16083,1.61649 v 5.11161 h -0.37178 q -2.25719,-1.5728 -5.94839,-2.5995 -3.66463,-1.04853 -7.51515,-1.04853 -4.2223,0 -6.79816,1.44174 -2.54931,1.44173 -2.54931,3.71357 0,2.03153 1.27465,3.18929 1.27466,1.15776 4.48784,1.7694 1.69955,0.30583 4.83308,0.74272 3.13353,0.43688 5.31106,0.89562 4.40818,0.96116 6.63883,2.90532 2.23065,1.94416 2.23065,5.43928 z"
           style="font-style:normal;font-variant:normal;font-weight:normal;font-stretch:normal;font-size:49.3261px;line-height:1.25;font-family:codicon;-inkscape-font-specification:'codicon, Normal ';font-variant-ligatures:normal;font-variant-caps:normal;font-variant-numeric:normal;font-variant-east-asian:normal;fill:#3952a6;fill-opacity:1;stroke:none;stroke-width:50.757"
           id="path1501" />
        <path
           d="m 419.0421,280.12212 h -6.82471 l -15.64109,-14.4829 -3.93019,3.45143 v 11.03147 h -5.25795 v -32.52646 h 5.25795 v 16.97318 l 19.19951,-16.97318 h 6.37327 l -17.65928,15.29115 z"
           style="font-style:normal;font-variant:normal;font-weight:normal;font-stretch:normal;font-size:49.3261px;line-height:1.25;font-family:codicon;-inkscape-font-specification:'codicon, Normal ';font-variant-ligatures:normal;font-variant-caps:normal;font-variant-numeric:normal;font-variant-east-asian:normal;fill:#3952a6;fill-opacity:1;stroke:none;stroke-width:50.757"
           id="path1505" />
        <path
           d="m 456.13992,280.12212 h -5.60316 l -3.87709,-9.06547 h -17.10162 l -3.87708,9.06547 h -5.33762 l 14.39298,-32.52646 h 7.01061 z m -11.10012,-12.77903 -6.93094,-15.96833 -6.95749,15.96833 z"
           style="font-style:normal;font-variant:normal;font-weight:normal;font-stretch:normal;font-size:49.3261px;line-height:1.25;font-family:codicon;-inkscape-font-specification:'codicon, Normal ';font-variant-ligatures:normal;font-variant-caps:normal;font-variant-numeric:normal;font-variant-east-asian:normal;fill:#3952a6;fill-opacity:1;stroke:none;stroke-width:50.757"
           id="path1507" />
        <path
           d="m 497.35377,280.12212 h -5.25796 v -28.02649 l -10.99391,19.07025 h -3.13352 l -10.91424,-19.07025 v 28.02649 h -4.91273 v -32.52646 h 7.16994 l 10.54246,18.10909 10.19724,-18.10909 h 7.30272 z"
           style="font-style:normal;font-variant:normal;font-weight:normal;font-stretch:normal;font-size:49.3261px;line-height:1.25;font-family:codicon;-inkscape-font-specification:'codicon, Normal ';font-variant-ligatures:normal;font-variant-caps:normal;font-variant-numeric:normal;font-variant-east-asian:normal;fill:#3952a6;fill-opacity:1;stroke:none;stroke-width:50.757"
           id="path1509" />
        <path
           d="m 539.20495,280.12212 h -5.60317 l -3.87708,-9.06547 h -17.10162 l -3.87708,9.06547 h -5.33762 l 14.39299,-32.52646 h 7.0106 z m -11.10012,-12.77903 -6.93094,-15.96833 -6.95749,15.96833 z"
           style="font-style:normal;font-variant:normal;font-weight:normal;font-stretch:normal;font-size:49.3261px;line-height:1.25;font-family:codicon;-inkscape-font-specification:'codicon, Normal ';font-variant-ligatures:normal;font-variant-caps:normal;font-variant-numeric:normal;font-variant-east-asian:normal;fill:#3952a6;fill-opacity:1;stroke:none;stroke-width:50.757"
           id="path1511" />
        <path
           d="m 102.89877,235.19718 h 7.48355 v 6.68174 h -7.48355 z"
           style="fill:#3952a6;fill-opacity:1;stroke-width:0.264583"
           id="rect1581" />
        <path
           id="path1584"
           style="fill:#3952a6;fill-opacity:1;stroke-width:0.264583"
           d="m 3.2151039,235.19718 h 7.4835501 v 6.68174 H 3.2151039 Z" />
        <path
           id="path1586"
           style="fill:#3952a6;fill-opacity:1;stroke-width:0.264583"
           d="m 186.55413,235.19718 h 7.48355 v 6.68174 h -7.48355 z" />
        <path
           id="path1477-1"
           style="font-style:normal;font-variant:normal;font-weight:normal;font-stretch:normal;font-size:49.3261px;line-height:1.25;font-family:codicon;-inkscape-font-specification:'codicon, Normal ';font-variant-ligatures:normal;font-variant-caps:normal;font-variant-numeric:normal;font-variant-east-asian:normal;fill:#3952a6;fill-opacity:1;stroke:none;stroke-width:50.7569"
           d="m 378.31673,261.33584 q 0,-3.5388 -0.95599,-6.18198 -0.92942,-2.62134 -3.08041,-4.3689 -2.04476,-1.66019 -4.77996,-2.42474 -2.7352,-0.76456 -6.37327,-0.76456 -3.71775,0 -6.4795,0.80825 -2.76176,0.80824 -4.64719,2.38105 -2.15098,1.79125 -3.10697,4.32521 -0.92943,2.53396 -0.92943,6.22567 v 19.46346 h 5.25795 v -19.6819 q 0,-2.64318 0.42488,-4.17229 0.45144,-1.52912 1.4871,-2.77426 1.16844,-1.41989 3.16009,-2.14076 2.0182,-0.72086 4.83307,-0.72086 2.84141,0 4.83306,0.69902 1.99165,0.72086 3.18664,2.1626 1.03566,1.24514 1.46055,2.83978 0.45143,1.6165 0.45143,3.99755 v 19.79112 h 5.25795 z" />
        <path
           id="path1499-8"
           style="font-style:normal;font-variant:normal;font-weight:normal;font-stretch:normal;font-size:49.3261px;line-height:1.25;font-family:codicon;-inkscape-font-specification:'codicon, Normal ';font-variant-ligatures:normal;font-variant-caps:normal;font-variant-numeric:normal;font-variant-east-asian:normal;fill:#3952a6;fill-opacity:1;stroke:none;stroke-width:50.7569"
           d="M 92.445464,246.05225 H 87.18751 v 28.02649 L 76.1936,255.00849 h -3.13353 l -10.91423,19.07025 v -28.02649 h -4.91273 v 32.52646 h 7.16993 l 10.54247,-18.10909 10.197239,18.10909 h 7.302715 z" />
        <path
           id="path1499-3"
           style="font-style:normal;font-variant:normal;font-weight:normal;font-stretch:normal;font-size:49.3261px;line-height:1.25;font-family:codicon;-inkscape-font-specification:'codicon, Normal ';font-variant-ligatures:normal;font-variant-caps:normal;font-variant-numeric:normal;font-variant-east-asian:normal;fill:#3952a6;fill-opacity:1;stroke:none;stroke-width:50.7569"
           d="m -89.739063,280.09061 h -5.257951 v -28.02649 l -10.993906,19.07025 h -3.13353 l -10.91423,-19.07025 v 28.02649 h -4.91273 v -32.52646 h 7.16993 l 10.54247,18.10909 10.197235,-18.10909 h 7.302712 z" />
      </g>
      <g
         id="g1798">
        <path
           d="m -125.51206,349.23142 h -16.61762 v 9.26879 h 14.27836 v 3.88406 h -14.27836 v 15.82316 h -4.36957 v -32.86008 h 20.98719 z"
           style="font-style:normal;font-variant:normal;font-weight:normal;font-stretch:normal;font-size:45.1964px;line-height:1.25;font-family:sans-serif;-inkscape-font-specification:'sans-serif, Normal';font-variant-ligatures:normal;font-variant-caps:normal;font-variant-numeric:normal;font-variant-east-asian:normal;fill:#3952a6;fill-opacity:1;stroke:none;stroke-width:1.12991"
           id="path1676" />
        <path
           d="m -93.358174,378.20743 h -5.671619 l -10.990137,-13.06459 h -6.15713 v 13.06459 h -4.36957 v -32.86008 h 9.20258 q 2.97926,0 4.96543,0.39723 1.98617,0.37517 3.5751,1.36825 1.78756,1.1255 2.78064,2.84685 1.015156,1.69928 1.015156,4.32543 0,3.55304 -1.787556,5.95851 -1.78755,2.38341 -4.92128,3.59718 z m -10.217736,-23.61336 q 0,-1.41238 -0.50758,-2.49374 -0.48551,-1.10343 -1.63307,-1.85376 -0.94895,-0.63999 -2.251,-0.88274 -1.30204,-0.26483 -3.06753,-0.26483 h -5.14197 v 12.40253 h 4.41371 q 2.07445,0 3.61924,-0.35309 1.5448,-0.37517 2.62616,-1.36826 0.99309,-0.92687 1.45653,-2.11858 0.48551,-1.21377 0.48551,-3.06753 z"
           style="font-style:normal;font-variant:normal;font-weight:normal;font-stretch:normal;font-size:45.1964px;line-height:1.25;font-family:sans-serif;-inkscape-font-specification:'sans-serif, Normal';font-variant-ligatures:normal;font-variant-caps:normal;font-variant-numeric:normal;font-variant-east-asian:normal;fill:#3952a6;fill-opacity:1;stroke:none;stroke-width:1.12991"
           id="path1678" />
        <path
           d="m -64.624915,349.12107 q 2.008239,2.20686 3.067529,5.4068 1.081359,3.19994 1.081359,7.26055 0,4.06062 -1.103427,7.28263 -1.08136,3.19994 -3.045461,5.34059 -2.030307,2.22892 -4.810945,3.35442 -2.758569,1.12549 -6.311606,1.12549 -3.464763,0 -6.311607,-1.14756 -2.824775,-1.14757 -4.810945,-3.33235 -1.98617,-2.18479 -3.067529,-5.36266 -1.059291,-3.17787 -1.059291,-7.26056 0,-4.01647 1.059291,-7.19435 1.059291,-3.19994 3.089598,-5.473 1.942032,-2.16272 4.810945,-3.31028 2.89098,-1.14756 6.289538,-1.14756 3.530968,0 6.333675,1.16963 2.824775,1.14756 4.788876,3.28821 z m -0.397234,12.66735 q 0,-6.39988 -2.868912,-9.86464 -2.868912,-3.48683 -7.834337,-3.48683 -5.009562,0 -7.878474,3.48683 -2.846843,3.46476 -2.846843,9.86464 0,6.46609 2.913049,9.90878 2.913049,3.42063 7.812268,3.42063 4.899219,0 7.7902,-3.42063 2.913049,-3.44269 2.913049,-9.90878 z"
           style="font-style:normal;font-variant:normal;font-weight:normal;font-stretch:normal;font-size:45.1964px;line-height:1.25;font-family:sans-serif;-inkscape-font-specification:'sans-serif, Normal';font-variant-ligatures:normal;font-variant-caps:normal;font-variant-numeric:normal;font-variant-east-asian:normal;fill:#3952a6;fill-opacity:1;stroke:none;stroke-width:1.12991"
           id="path1680" />
        <path
           d="m 3.6993241,349.23142 h -11.740471 v 28.97601 h -4.3695741 v -28.97601 h -11.740471 v -3.88407 H 3.6993241 Z"
           style="font-style:normal;font-variant:normal;font-weight:normal;font-stretch:normal;font-size:45.1964px;line-height:1.25;font-family:sans-serif;-inkscape-font-specification:'sans-serif, Normal';font-variant-ligatures:normal;font-variant-caps:normal;font-variant-numeric:normal;font-variant-east-asian:normal;fill:#3952a6;fill-opacity:1;stroke:none;stroke-width:1.12991"
           id="path1684" />
        <path
           d="M 29.806432,378.20743 H 8.1571801 V 345.34735 H 29.806432 v 3.88407 H 12.526754 v 9.00397 h 17.279678 v 3.88406 H 12.526754 v 12.20391 h 17.279678 z"
           style="font-style:normal;font-variant:normal;font-weight:normal;font-stretch:normal;font-size:45.1964px;line-height:1.25;font-family:sans-serif;-inkscape-font-specification:'sans-serif, Normal';font-variant-ligatures:normal;font-variant-caps:normal;font-variant-numeric:normal;font-variant-east-asian:normal;fill:#3952a6;fill-opacity:1;stroke:none;stroke-width:1.12991"
           id="path1686" />
        <path
           d="m 61.827903,378.20743 h -5.406795 l -15.5804,-29.39532 v 29.39532 h -4.082683 v -32.86008 h 6.775047 l 14.212149,26.83536 v -26.83536 h 4.082682 z"
           style="font-style:normal;font-variant:normal;font-weight:normal;font-stretch:normal;font-size:45.1964px;line-height:1.25;font-family:sans-serif;-inkscape-font-specification:'sans-serif, Normal';font-variant-ligatures:normal;font-variant-caps:normal;font-variant-numeric:normal;font-variant-east-asian:normal;fill:#3952a6;fill-opacity:1;stroke:none;stroke-width:1.12991"
           id="path1688" />
        <path
           d="m 98.329288,361.81049 q 0,4.47992 -1.964101,8.12123 -1.942033,3.64131 -5.186111,5.64955 -2.250992,1.39032 -5.03163,2.00824 -2.758569,0.61792 -7.282623,0.61792 h -8.297777 v -32.86008 h 8.209503 q 4.810945,0 7.63572,0.70619 2.846843,0.68413 4.810945,1.8979 3.35442,2.09651 5.230247,5.58334 1.875827,3.48684 1.875827,8.27571 z m -4.568191,-0.0662 q 0,-3.862 -1.346182,-6.51023 -1.346181,-2.64822 -4.016476,-4.17095 -1.942033,-1.10343 -4.12682,-1.52273 Q 82.086832,349.099 79.041371,349.099 H 74.93662 v 25.35677 h 4.104751 q 3.155804,0 5.49507,-0.46344 2.361336,-0.46344 4.325437,-1.72134 2.44961,-1.56687 3.66338,-4.12682 1.235839,-2.55996 1.235839,-6.39988 z"
           style="font-style:normal;font-variant:normal;font-weight:normal;font-stretch:normal;font-size:45.1964px;line-height:1.25;font-family:sans-serif;-inkscape-font-specification:'sans-serif, Normal';font-variant-ligatures:normal;font-variant-caps:normal;font-variant-numeric:normal;font-variant-east-asian:normal;fill:#3952a6;fill-opacity:1;stroke:none;stroke-width:1.12991"
           id="path1690" />
        <path
           d="m 142.97397,378.20743 h -21.64925 v -32.86008 h 21.64925 v 3.88407 H 125.6943 v 9.00397 h 17.27967 v 3.88406 H 125.6943 v 12.20391 h 17.27967 z"
           style="font-style:normal;font-variant:normal;font-weight:normal;font-stretch:normal;font-size:45.1964px;line-height:1.25;font-family:sans-serif;-inkscape-font-specification:'sans-serif, Normal';font-variant-ligatures:normal;font-variant-caps:normal;font-variant-numeric:normal;font-variant-east-asian:normal;fill:#3952a6;fill-opacity:1;stroke:none;stroke-width:1.12991"
           id="path1692" />
        <path
           d="m 174.99546,378.20743 h -5.4068 l -15.5804,-29.39532 v 29.39532 h -4.08268 v -32.86008 h 6.77505 l 14.21215,26.83536 v -26.83536 h 4.08268 z"
           style="font-style:normal;font-variant:normal;font-weight:normal;font-stretch:normal;font-size:45.1964px;line-height:1.25;font-family:sans-serif;-inkscape-font-specification:'sans-serif, Normal';font-variant-ligatures:normal;font-variant-caps:normal;font-variant-numeric:normal;font-variant-east-asian:normal;fill:#3952a6;fill-opacity:1;stroke:none;stroke-width:1.12991"
           id="path1694" />
        <path
           d="m 203.39769,366.8521 q 0,6.26747 -2.84685,9.20259 -2.84684,2.93512 -8.76121,2.93512 -1.96411,0 -3.83993,-0.28689 -1.85376,-0.26483 -3.66338,-0.7724 v -4.23717 h 0.22068 q 1.01516,0.39724 3.22201,0.97102 2.20686,0.59585 4.41371,0.59585 2.11858,0 3.5089,-0.50758 1.39032,-0.50757 2.16272,-1.41238 0.7724,-0.86068 1.10343,-2.07445 0.33103,-1.21377 0.33103,-2.71443 v -2.25099 q -1.87583,1.50066 -3.59718,2.25099 -1.69928,0.72826 -4.3475,0.72826 -4.41371,0 -7.0178,-3.17787 -2.58202,-3.19994 -2.58202,-9.00397 0,-3.17787 0.88274,-5.473 0.90481,-2.3172 2.44961,-3.99441 1.43445,-1.56687 3.48683,-2.42754 2.05238,-0.88274 4.08268,-0.88274 2.14065,0 3.57511,0.44137 1.45652,0.4193 3.06753,1.30204 l 0.26482,-1.05929 h 3.88407 z m -4.14889,-3.97234 v -13.43975 q -1.65514,-0.75033 -3.0896,-1.05929 -1.41239,-0.33103 -2.82478,-0.33103 -3.42062,0 -5.38472,2.29513 -1.9641,2.29513 -1.9641,6.66471 0,4.14888 1.45652,6.28953 1.45653,2.14065 4.83301,2.14065 1.80963,0 3.61925,-0.68412 1.83169,-0.70619 3.35442,-1.87583 z"
           style="font-style:normal;font-variant:normal;font-weight:normal;font-stretch:normal;font-size:45.1964px;line-height:1.25;font-family:sans-serif;-inkscape-font-specification:'sans-serif, Normal';font-variant-ligatures:normal;font-variant-caps:normal;font-variant-numeric:normal;font-variant-east-asian:normal;fill:#3952a6;fill-opacity:1;stroke:none;stroke-width:1.12991"
           id="path1696" />
        <path
           d="m 223.48005,378.20743 h -12.97631 v -3.35442 h 4.30337 v -26.15124 h -4.30337 v -3.35442 h 12.97631 v 3.35442 h -4.30337 v 26.15124 h 4.30337 z"
           style="font-style:normal;font-variant:normal;font-weight:normal;font-stretch:normal;font-size:45.1964px;line-height:1.25;font-family:sans-serif;-inkscape-font-specification:'sans-serif, Normal';font-variant-ligatures:normal;font-variant-caps:normal;font-variant-numeric:normal;font-variant-east-asian:normal;fill:#3952a6;fill-opacity:1;stroke:none;stroke-width:1.12991"
           id="path1698" />
        <path
           d="m 286.41959,378.20743 h -21.64925 v -32.86008 h 21.64925 v 3.88407 h -17.27968 v 9.00397 h 17.27968 v 3.88406 h -17.27968 v 12.20391 h 17.27968 z"
           style="font-style:normal;font-variant:normal;font-weight:normal;font-stretch:normal;font-size:45.1964px;line-height:1.25;font-family:sans-serif;-inkscape-font-specification:'sans-serif, Normal';font-variant-ligatures:normal;font-variant-caps:normal;font-variant-numeric:normal;font-variant-east-asian:normal;fill:#3952a6;fill-opacity:1;stroke:none;stroke-width:1.12991"
           id="path1702" />
        <path
           d="m 315.02042,378.20743 h -21.64925 v -32.86008 h 21.64925 v 3.88407 h -17.27968 v 9.00397 h 17.27968 v 3.88406 h -17.27968 v 12.20391 h 17.27968 z"
           style="font-style:normal;font-variant:normal;font-weight:normal;font-stretch:normal;font-size:45.1964px;line-height:1.25;font-family:sans-serif;-inkscape-font-specification:'sans-serif, Normal';font-variant-ligatures:normal;font-variant-caps:normal;font-variant-numeric:normal;font-variant-east-asian:normal;fill:#3952a6;fill-opacity:1;stroke:none;stroke-width:1.12991"
           id="path1704" />
        <path
           d="m 349.16049,378.20743 h -5.67162 l -10.99014,-13.06459 h -6.15713 v 13.06459 h -4.36957 v -32.86008 h 9.20259 q 2.97925,0 4.96542,0.39723 1.98617,0.37517 3.57511,1.36825 1.78755,1.1255 2.78064,2.84685 1.01515,1.69928 1.01515,4.32543 0,3.55304 -1.78755,5.95851 -1.78756,2.38341 -4.92129,3.59718 z m -10.21774,-23.61336 q 0,-1.41238 -0.50758,-2.49374 -0.48551,-1.10343 -1.63307,-1.85376 -0.94895,-0.63999 -2.25099,-0.88274 -1.30205,-0.26483 -3.06753,-0.26483 h -5.14198 v 12.40253 h 4.41371 q 2.07445,0 3.61925,-0.35309 1.5448,-0.37517 2.62616,-1.36826 0.99308,-0.92687 1.45652,-2.11858 0.48551,-1.21377 0.48551,-3.06753 z"
           style="font-style:normal;font-variant:normal;font-weight:normal;font-stretch:normal;font-size:45.1964px;line-height:1.25;font-family:sans-serif;-inkscape-font-specification:'sans-serif, Normal';font-variant-ligatures:normal;font-variant-caps:normal;font-variant-numeric:normal;font-variant-east-asian:normal;fill:#3952a6;fill-opacity:1;stroke:none;stroke-width:1.12991"
           id="path1706" />
        <path
           id="path1650-5"
           style="fill:#3952a6;fill-opacity:1;stroke-width:0.179538"
           d="m 214.48379,336.4971 h 5.07813 v 4.53404 h -5.07813 z" />
        <path
           d="m -25.645068,359.23955 q 0,-3.5388 -0.95599,-6.18198 -0.929421,-2.62134 -3.08041,-4.3689 -2.04476,-1.66019 -4.77996,-2.42474 -2.7352,-0.76456 -6.37327,-0.76456 -3.71775,0 -6.4795,0.80825 -2.76176,0.80824 -4.64719,2.38105 -2.15098,1.79125 -3.10697,4.32521 -0.92943,2.53396 -0.92943,6.22567 v 19.46346 h 5.25795 v -19.6819 q 0,-2.64318 0.42488,-4.17229 0.45144,-1.52912 1.4871,-2.77426 1.16844,-1.41989 3.16009,-2.14076 2.0182,-0.72086 4.83307,-0.72086 2.84141,0 4.83306,0.69902 1.99165,0.72086 3.18664,2.1626 1.03566,1.24514 1.46055,2.83978 0.45143,1.6165 0.45143,3.99755 v 19.79112 h 5.25795 z"
           style="font-style:normal;font-variant:normal;font-weight:normal;font-stretch:normal;font-size:49.3261px;line-height:1.25;font-family:codicon;-inkscape-font-specification:'codicon, Normal ';font-variant-ligatures:normal;font-variant-caps:normal;font-variant-numeric:normal;font-variant-east-asian:normal;fill:#3952a6;fill-opacity:1;stroke:none;stroke-width:50.7569"
           id="path1477-1-4" />
        <path
           d="m 257.85709,358.48676 q 0,-3.5388 -0.95599,-6.18198 -0.92942,-2.62134 -3.08041,-4.3689 -2.04476,-1.66019 -4.77996,-2.42474 -2.7352,-0.76456 -6.37327,-0.76456 -3.71775,0 -6.4795,0.80825 -2.76176,0.80824 -4.64719,2.38105 -2.15098,1.79125 -3.10697,4.32521 -0.92943,2.53396 -0.92943,6.22567 v 19.46346 h 5.25795 v -19.6819 q 0,-2.64318 0.42488,-4.17229 0.45144,-1.52912 1.4871,-2.77426 1.16844,-1.41989 3.16009,-2.14076 2.0182,-0.72086 4.83307,-0.72086 2.84141,0 4.83306,0.69902 1.99165,0.72086 3.18664,2.1626 1.03566,1.24514 1.46055,2.83978 0.45143,1.6165 0.45143,3.99755 v 19.79112 h 5.25795 z"
           style="font-style:normal;font-variant:normal;font-weight:normal;font-stretch:normal;font-size:49.3261px;line-height:1.25;font-family:codicon;-inkscape-font-specification:'codicon, Normal ';font-variant-ligatures:normal;font-variant-caps:normal;font-variant-numeric:normal;font-variant-east-asian:normal;fill:#3952a6;fill-opacity:1;stroke:none;stroke-width:50.7569"
           id="path1477-1-1" />
      </g>
    </g>
  </g>
</svg>
